<svg xmlns="http://www.w3.org/2000/svg" xmlns:xlink="http://www.w3.org/1999/xlink" width="500" zoomAndPan="magnify" viewBox="0 0 375 374.999991" height="500" preserveAspectRatio="xMidYMid meet" version="1.0"><defs><clipPath id="912d3ef6be"><path d="M 0 0 L 375 0 L 375 375 L 0 375 Z M 0 0 " clip-rule="nonzero"/></clipPath><clipPath id="3cc63f7b9a"><rect x="0" width="375" y="0" height="375"/></clipPath><clipPath id="fd4247cac4"><path d="M 33.164062 204.089844 L 187.5 204.089844 L 187.5 236.246094 L 33.164062 236.246094 Z M 33.164062 204.089844 " clip-rule="nonzero"/></clipPath><clipPath id="6720c2620e"><path d="M 0.164062 0.0898438 L 154.5 0.0898438 L 154.5 32.246094 L 0.164062 32.246094 Z M 0.164062 0.0898438 " clip-rule="nonzero"/></clipPath><clipPath id="144f3ab847"><rect x="0" width="155" y="0" height="33"/></clipPath><clipPath id="0dccba3390"><path d="M 33.164062 256.949219 L 187.5 256.949219 L 187.5 289.105469 L 33.164062 289.105469 Z M 33.164062 256.949219 " clip-rule="nonzero"/></clipPath><clipPath id="c80046821e"><path d="M 0.164062 0.949219 L 154.5 0.949219 L 154.5 33.105469 L 0.164062 33.105469 Z M 0.164062 0.949219 " clip-rule="nonzero"/></clipPath><clipPath id="ea6925faee"><rect x="0" width="155" y="0" height="34"/></clipPath><clipPath id="9294d69ad2"><path d="M 33.164062 309.683594 L 187.5 309.683594 L 187.5 341.835938 L 33.164062 341.835938 Z M 33.164062 309.683594 " clip-rule="nonzero"/></clipPath><clipPath id="593e5271ae"><path d="M 0.164062 0.683594 L 154.5 0.683594 L 154.5 32.835938 L 0.164062 32.835938 Z M 0.164062 0.683594 " clip-rule="nonzero"/></clipPath><clipPath id="82ef724410"><rect x="0" width="155" y="0" height="33"/></clipPath></defs><g transform="matrix(1, 0, 0, 1, 0, 0)"><g clip-path="url(#3cc63f7b9a)"><g clip-path="url(#912d3ef6be)"><rect x="-82.5" width="540" fill="#000000" height="539.999987" y="-82.499998" fill-opacity="1"/></g></g></g><g clip-path="url(#fd4247cac4)"><g transform="matrix(1, 0, 0, 1, 33, 204)"><g clip-path="url(#144f3ab847)"><g clip-path="url(#6720c2620e)"><path fill="#ffffff" d="M 0.164062 0.0898438 L 154.523438 0.0898438 L 154.523438 32.246094 L 0.164062 32.246094 Z M 0.164062 0.0898438 " fill-opacity="1" fill-rule="nonzero"/></g></g></g></g><g clip-path="url(#0dccba3390)"><g transform="matrix(1, 0, 0, 1, 33, 256)"><g clip-path="url(#ea6925faee)"><g clip-path="url(#c80046821e)"><path fill="#ffffff" d="M 0.164062 0.949219 L 154.523438 0.949219 L 154.523438 33.105469 L 0.164062 33.105469 Z M 0.164062 0.949219 " fill-opacity="1" fill-rule="nonzero"/></g></g></g></g><g clip-path="url(#9294d69ad2)"><g transform="matrix(1, 0, 0, 1, 33, 309)"><g clip-path="url(#82ef724410)"><g clip-path="url(#593e5271ae)"><path fill="#ffffff" d="M 0.164062 0.683594 L 154.523438 0.683594 L 154.523438 32.835938 L 0.164062 32.835938 Z M 0.164062 0.683594 " fill-opacity="1" fill-rule="nonzero"/></g></g></g></g></svg>